<svg xmlns="http://www.w3.org/2000/svg" version="1.1" xmlns:xlink="http://www.w3.org/1999/xlink" xmlns:svgjs="http://svgjs.dev/svgjs" width="1440" height="660" preserveAspectRatio="none" viewBox="0 0 1440 660"><g mask="url(&quot;#SvgjsMask1026&quot;)" fill="none"><path d="M-97.04 693.57L-97.04 693.57" stroke="#132e65" stroke-width="1.5"></path><path d="M-97.04 693.57L-45.9 826.84" stroke="#132e65" stroke-width="1.5"></path><path d="M-97.04 693.57L74.67 644.15" stroke="#132e65" stroke-width="1.5"></path><path d="M-97.04 693.57L65.1 833.36" stroke="#132e65" stroke-width="1.5"></path><path d="M-97.04 693.57L64.83 499.65" stroke="#132e65" stroke-width="1.5"></path><path d="M-45.9 826.84L-45.9 826.84" stroke="#132e65" stroke-width="1.5"></path><path d="M-45.9 826.84L65.1 833.36" stroke="#132e65" stroke-width="1.5"></path><path d="M-45.9 826.84L74.67 644.15" stroke="#132e65" stroke-width="1.5"></path><path d="M-45.9 826.84L236.13 671.43" stroke="#132e65" stroke-width="1.5"></path><path d="M-45.9 826.84L64.83 499.65" stroke="#132e65" stroke-width="1.5"></path><path d="M64.83 499.65L64.83 499.65" stroke="#132e65" stroke-width="1.5"></path><path d="M64.83 499.65L74.67 644.15" stroke="#132e65" stroke-width="1.5"></path><path d="M64.83 499.65L260.58 501.8" stroke="#132e65" stroke-width="1.5"></path><path d="M64.83 499.65L236.13 671.43" stroke="#132e65" stroke-width="1.5"></path><path d="M74.67 644.15L74.67 644.15" stroke="#132e65" stroke-width="1.5"></path><path d="M74.67 644.15L236.13 671.43" stroke="#132e65" stroke-width="1.5"></path><path d="M65.1 833.36L65.1 833.36" stroke="#132e65" stroke-width="1.5"></path><path d="M65.1 833.36L74.67 644.15" stroke="#132e65" stroke-width="1.5"></path><path d="M65.1 833.36L236.13 671.43" stroke="#132e65" stroke-width="1.5"></path><path d="M260.58 501.8L260.58 501.8" stroke="#132e65" stroke-width="1.5"></path><path d="M260.58 501.8L353.5 489.89" stroke="#132e65" stroke-width="1.5"></path><path d="M260.58 501.8L348.82 641.72" stroke="#132e65" stroke-width="1.5"></path><path d="M260.58 501.8L236.13 671.43" stroke="#132e65" stroke-width="1.5"></path><path d="M260.58 501.8L491.12 534.26" stroke="#132e65" stroke-width="1.5"></path><path d="M260.58 501.8L74.67 644.15" stroke="#132e65" stroke-width="1.5"></path><path d="M236.13 671.43L236.13 671.43" stroke="#132e65" stroke-width="1.5"></path><path d="M236.13 671.43L348.82 641.72" stroke="#132e65" stroke-width="1.5"></path><path d="M236.13 671.43L339.32 856.04" stroke="#132e65" stroke-width="1.5"></path><path d="M236.13 671.43L353.5 489.89" stroke="#132e65" stroke-width="1.5"></path><path d="M353.5 489.89L353.5 489.89" stroke="#132e65" stroke-width="1.5"></path><path d="M353.5 489.89L491.12 534.26" stroke="#132e65" stroke-width="1.5"></path><path d="M353.5 489.89L348.82 641.72" stroke="#132e65" stroke-width="1.5"></path><path d="M353.5 489.89L507.35 388.55" stroke="#132e65" stroke-width="1.5"></path><path d="M353.5 489.89L531.11 680.58" stroke="#132e65" stroke-width="1.5"></path><path d="M348.82 641.72L348.82 641.72" stroke="#132e65" stroke-width="1.5"></path><path d="M348.82 641.72L491.12 534.26" stroke="#132e65" stroke-width="1.5"></path><path d="M348.82 641.72L531.11 680.58" stroke="#132e65" stroke-width="1.5"></path><path d="M339.32 856.04L339.32 856.04" stroke="#132e65" stroke-width="1.5"></path><path d="M339.32 856.04L530.13 858.72" stroke="#132e65" stroke-width="1.5"></path><path d="M339.32 856.04L348.82 641.72" stroke="#132e65" stroke-width="1.5"></path><path d="M339.32 856.04L531.11 680.58" stroke="#132e65" stroke-width="1.5"></path><path d="M507.35 388.55L507.35 388.55" stroke="#132e65" stroke-width="1.5"></path><path d="M507.35 388.55L491.12 534.26" stroke="#132e65" stroke-width="1.5"></path><path d="M507.35 388.55L705.83 352.37" stroke="#132e65" stroke-width="1.5"></path><path d="M507.35 388.55L682.9 549.31" stroke="#132e65" stroke-width="1.5"></path><path d="M491.12 534.26L491.12 534.26" stroke="#132e65" stroke-width="1.5"></path><path d="M491.12 534.26L531.11 680.58" stroke="#132e65" stroke-width="1.5"></path><path d="M491.12 534.26L682.9 549.31" stroke="#132e65" stroke-width="1.5"></path><path d="M531.11 680.58L531.11 680.58" stroke="#132e65" stroke-width="1.5"></path><path d="M531.11 680.58L707.56 656.74" stroke="#132e65" stroke-width="1.5"></path><path d="M530.13 858.72L530.13 858.72" stroke="#132e65" stroke-width="1.5"></path><path d="M530.13 858.72L531.11 680.58" stroke="#132e65" stroke-width="1.5"></path><path d="M530.13 858.72L707.56 656.74" stroke="#132e65" stroke-width="1.5"></path><path d="M705.83 352.37L705.83 352.37" stroke="#132e65" stroke-width="1.5"></path><path d="M705.83 352.37L813.13 242.48" stroke="#132e65" stroke-width="1.5"></path><path d="M705.83 352.37L682.9 549.31" stroke="#132e65" stroke-width="1.5"></path><path d="M705.83 352.37L834.6 542.95" stroke="#132e65" stroke-width="1.5"></path><path d="M705.83 352.37L972.91 405.98" stroke="#132e65" stroke-width="1.5"></path><path d="M705.83 352.37L491.12 534.26" stroke="#132e65" stroke-width="1.5"></path><path d="M682.9 549.31L682.9 549.31" stroke="#132e65" stroke-width="1.5"></path><path d="M682.9 549.31L707.56 656.74" stroke="#132e65" stroke-width="1.5"></path><path d="M682.9 549.31L789.73 639.03" stroke="#132e65" stroke-width="1.5"></path><path d="M682.9 549.31L834.6 542.95" stroke="#132e65" stroke-width="1.5"></path><path d="M707.56 656.74L707.56 656.74" stroke="#132e65" stroke-width="1.5"></path><path d="M707.56 656.74L789.73 639.03" stroke="#132e65" stroke-width="1.5"></path><path d="M707.56 656.74L834.6 542.95" stroke="#132e65" stroke-width="1.5"></path><path d="M707.56 656.74L858.77 789.01" stroke="#132e65" stroke-width="1.5"></path><path d="M707.56 656.74L943.33 644.58" stroke="#132e65" stroke-width="1.5"></path><path d="M813.13 242.48L813.13 242.48" stroke="#132e65" stroke-width="1.5"></path><path d="M813.13 242.48L963.74 233.18" stroke="#132e65" stroke-width="1.5"></path><path d="M834.6 542.95L834.6 542.95" stroke="#132e65" stroke-width="1.5"></path><path d="M834.6 542.95L789.73 639.03" stroke="#132e65" stroke-width="1.5"></path><path d="M834.6 542.95L966.48 538.28" stroke="#132e65" stroke-width="1.5"></path><path d="M834.6 542.95L943.33 644.58" stroke="#132e65" stroke-width="1.5"></path><path d="M789.73 639.03L789.73 639.03" stroke="#132e65" stroke-width="1.5"></path><path d="M789.73 639.03L943.33 644.58" stroke="#132e65" stroke-width="1.5"></path><path d="M858.77 789.01L858.77 789.01" stroke="#132e65" stroke-width="1.5"></path><path d="M858.77 789.01L789.73 639.03" stroke="#132e65" stroke-width="1.5"></path><path d="M858.77 789.01L943.33 644.58" stroke="#132e65" stroke-width="1.5"></path><path d="M967.74 -98.65L967.74 -98.65" stroke="#132e65" stroke-width="1.5"></path><path d="M967.74 -98.65L1115.57 -106.4" stroke="#132e65" stroke-width="1.5"></path><path d="M967.74 -98.65L1006.51 107.07" stroke="#132e65" stroke-width="1.5"></path><path d="M967.74 -98.65L1260.79 -102.19" stroke="#132e65" stroke-width="1.5"></path><path d="M967.74 -98.65L1094.38 207.06" stroke="#132e65" stroke-width="1.5"></path><path d="M967.74 -98.65L963.74 233.18" stroke="#132e65" stroke-width="1.5"></path><path d="M967.74 -98.65L813.13 242.48" stroke="#132e65" stroke-width="1.5"></path><path d="M1006.51 107.07L1006.51 107.07" stroke="#132e65" stroke-width="1.5"></path><path d="M1006.51 107.07L1094.38 207.06" stroke="#132e65" stroke-width="1.5"></path><path d="M1006.51 107.07L963.74 233.18" stroke="#132e65" stroke-width="1.5"></path><path d="M1006.51 107.07L813.13 242.48" stroke="#132e65" stroke-width="1.5"></path><path d="M963.74 233.18L963.74 233.18" stroke="#132e65" stroke-width="1.5"></path><path d="M963.74 233.18L1094.38 207.06" stroke="#132e65" stroke-width="1.5"></path><path d="M963.74 233.18L972.91 405.98" stroke="#132e65" stroke-width="1.5"></path><path d="M972.91 405.98L972.91 405.98" stroke="#132e65" stroke-width="1.5"></path><path d="M972.91 405.98L966.48 538.28" stroke="#132e65" stroke-width="1.5"></path><path d="M972.91 405.98L1101.14 522.17" stroke="#132e65" stroke-width="1.5"></path><path d="M972.91 405.98L834.6 542.95" stroke="#132e65" stroke-width="1.5"></path><path d="M966.48 538.28L966.48 538.28" stroke="#132e65" stroke-width="1.5"></path><path d="M966.48 538.28L943.33 644.58" stroke="#132e65" stroke-width="1.5"></path><path d="M943.33 644.58L943.33 644.58" stroke="#132e65" stroke-width="1.5"></path><path d="M1115.57 -106.4L1115.57 -106.4" stroke="#132e65" stroke-width="1.5"></path><path d="M1115.57 -106.4L1260.79 -102.19" stroke="#132e65" stroke-width="1.5"></path><path d="M1115.57 -106.4L1006.51 107.07" stroke="#132e65" stroke-width="1.5"></path><path d="M1094.38 207.06L1094.38 207.06" stroke="#132e65" stroke-width="1.5"></path><path d="M1094.38 207.06L1239.54 224.3" stroke="#132e65" stroke-width="1.5"></path><path d="M1094.38 207.06L972.91 405.98" stroke="#132e65" stroke-width="1.5"></path><path d="M1094.38 207.06L1300.81 340.97" stroke="#132e65" stroke-width="1.5"></path><path d="M1101.14 522.17L1101.14 522.17" stroke="#132e65" stroke-width="1.5"></path><path d="M1101.14 522.17L966.48 538.28" stroke="#132e65" stroke-width="1.5"></path><path d="M1101.14 522.17L1251.29 518.47" stroke="#132e65" stroke-width="1.5"></path><path d="M1098.51 703.11L1098.51 703.11" stroke="#132e65" stroke-width="1.5"></path><path d="M1098.51 703.11L1150.91 809.28" stroke="#132e65" stroke-width="1.5"></path><path d="M1098.51 703.11L943.33 644.58" stroke="#132e65" stroke-width="1.5"></path><path d="M1098.51 703.11L1101.14 522.17" stroke="#132e65" stroke-width="1.5"></path><path d="M1098.51 703.11L966.48 538.28" stroke="#132e65" stroke-width="1.5"></path><path d="M1150.91 809.28L1150.91 809.28" stroke="#132e65" stroke-width="1.5"></path><path d="M1150.91 809.28L1300.08 823.05" stroke="#132e65" stroke-width="1.5"></path><path d="M1260.79 -102.19L1260.79 -102.19" stroke="#132e65" stroke-width="1.5"></path><path d="M1260.79 -102.19L1422.41 -61.8" stroke="#132e65" stroke-width="1.5"></path><path d="M1260.79 -102.19L1413.53 98.04" stroke="#132e65" stroke-width="1.5"></path><path d="M1260.79 -102.19L1239.54 224.3" stroke="#132e65" stroke-width="1.5"></path><path d="M1239.54 224.3L1239.54 224.3" stroke="#132e65" stroke-width="1.5"></path><path d="M1239.54 224.3L1300.81 340.97" stroke="#132e65" stroke-width="1.5"></path><path d="M1239.54 224.3L1427.92 215.25" stroke="#132e65" stroke-width="1.5"></path><path d="M1239.54 224.3L1417.7 340.81" stroke="#132e65" stroke-width="1.5"></path><path d="M1239.54 224.3L1413.53 98.04" stroke="#132e65" stroke-width="1.5"></path><path d="M1300.81 340.97L1300.81 340.97" stroke="#132e65" stroke-width="1.5"></path><path d="M1300.81 340.97L1417.7 340.81" stroke="#132e65" stroke-width="1.5"></path><path d="M1300.81 340.97L1427.92 215.25" stroke="#132e65" stroke-width="1.5"></path><path d="M1300.81 340.97L1251.29 518.47" stroke="#132e65" stroke-width="1.5"></path><path d="M1300.81 340.97L1538.35 371.51" stroke="#132e65" stroke-width="1.5"></path><path d="M1251.29 518.47L1251.29 518.47" stroke="#132e65" stroke-width="1.5"></path><path d="M1251.29 518.47L1442.02 546.84" stroke="#132e65" stroke-width="1.5"></path><path d="M1251.29 518.47L1098.51 703.11" stroke="#132e65" stroke-width="1.5"></path><path d="M1251.29 518.47L1433.89 678.34" stroke="#132e65" stroke-width="1.5"></path><path d="M1300.08 823.05L1300.08 823.05" stroke="#132e65" stroke-width="1.5"></path><path d="M1300.08 823.05L1416.74 843.35" stroke="#132e65" stroke-width="1.5"></path><path d="M1300.08 823.05L1433.89 678.34" stroke="#132e65" stroke-width="1.5"></path><path d="M1300.08 823.05L1098.51 703.11" stroke="#132e65" stroke-width="1.5"></path><path d="M1300.08 823.05L1594.56 825.28" stroke="#132e65" stroke-width="1.5"></path><path d="M1422.41 -61.8L1422.41 -61.8" stroke="#132e65" stroke-width="1.5"></path><path d="M1422.41 -61.8L1413.53 98.04" stroke="#132e65" stroke-width="1.5"></path><path d="M1422.41 -61.8L1570.78 86.79" stroke="#132e65" stroke-width="1.5"></path><path d="M1422.41 -61.8L1427.92 215.25" stroke="#132e65" stroke-width="1.5"></path><path d="M1422.41 -61.8L1549.41 192.59" stroke="#132e65" stroke-width="1.5"></path><path d="M1413.53 98.04L1413.53 98.04" stroke="#132e65" stroke-width="1.5"></path><path d="M1413.53 98.04L1427.92 215.25" stroke="#132e65" stroke-width="1.5"></path><path d="M1413.53 98.04L1570.78 86.79" stroke="#132e65" stroke-width="1.5"></path><path d="M1413.53 98.04L1549.41 192.59" stroke="#132e65" stroke-width="1.5"></path><path d="M1413.53 98.04L1417.7 340.81" stroke="#132e65" stroke-width="1.5"></path><path d="M1427.92 215.25L1427.92 215.25" stroke="#132e65" stroke-width="1.5"></path><path d="M1427.92 215.25L1549.41 192.59" stroke="#132e65" stroke-width="1.5"></path><path d="M1417.7 340.81L1417.7 340.81" stroke="#132e65" stroke-width="1.5"></path><path d="M1417.7 340.81L1538.35 371.51" stroke="#132e65" stroke-width="1.5"></path><path d="M1417.7 340.81L1427.92 215.25" stroke="#132e65" stroke-width="1.5"></path><path d="M1417.7 340.81L1549.41 192.59" stroke="#132e65" stroke-width="1.5"></path><path d="M1417.7 340.81L1442.02 546.84" stroke="#132e65" stroke-width="1.5"></path><path d="M1442.02 546.84L1442.02 546.84" stroke="#132e65" stroke-width="1.5"></path><path d="M1442.02 546.84L1433.89 678.34" stroke="#132e65" stroke-width="1.5"></path><path d="M1442.02 546.84L1578.07 505.65" stroke="#132e65" stroke-width="1.5"></path><path d="M1433.89 678.34L1433.89 678.34" stroke="#132e65" stroke-width="1.5"></path><path d="M1433.89 678.34L1416.74 843.35" stroke="#132e65" stroke-width="1.5"></path><path d="M1433.89 678.34L1594.56 825.28" stroke="#132e65" stroke-width="1.5"></path><path d="M1433.89 678.34L1578.07 505.65" stroke="#132e65" stroke-width="1.5"></path><path d="M1416.74 843.35L1416.74 843.35" stroke="#132e65" stroke-width="1.5"></path><path d="M1416.74 843.35L1594.56 825.28" stroke="#132e65" stroke-width="1.5"></path><path d="M1416.74 843.35L1150.91 809.28" stroke="#132e65" stroke-width="1.5"></path><path d="M1570.78 86.79L1570.78 86.79" stroke="#132e65" stroke-width="1.5"></path><path d="M1570.78 86.79L1549.41 192.59" stroke="#132e65" stroke-width="1.5"></path><path d="M1570.78 86.79L1427.92 215.25" stroke="#132e65" stroke-width="1.5"></path><path d="M1549.41 192.59L1549.41 192.59" stroke="#132e65" stroke-width="1.5"></path><path d="M1538.35 371.51L1538.35 371.51" stroke="#132e65" stroke-width="1.5"></path><path d="M1538.35 371.51L1578.07 505.65" stroke="#132e65" stroke-width="1.5"></path><path d="M1538.35 371.51L1549.41 192.59" stroke="#132e65" stroke-width="1.5"></path><path d="M1578.07 505.65L1578.07 505.65" stroke="#132e65" stroke-width="1.5"></path><path d="M1594.56 825.28L1594.56 825.28" stroke="#132e65" stroke-width="1.5"></path><circle r="5" cx="-97.04" cy="693.57" fill="#132e65"></circle><circle r="5" cx="-45.9" cy="826.84" fill="#132e65"></circle><circle r="5" cx="64.83" cy="499.65" fill="#132e65"></circle><circle r="5" cx="74.67" cy="644.15" fill="#132e65"></circle><circle r="5" cx="65.1" cy="833.36" fill="#132e65"></circle><circle r="5" cx="260.58" cy="501.8" fill="#132e65"></circle><circle r="5" cx="236.13" cy="671.43" fill="#132e65"></circle><circle r="5" cx="353.5" cy="489.89" fill="#132e65"></circle><circle r="5" cx="348.82" cy="641.72" fill="#132e65"></circle><circle r="5" cx="339.32" cy="856.04" fill="#132e65"></circle><circle r="5" cx="507.35" cy="388.55" fill="#132e65"></circle><circle r="5" cx="491.12" cy="534.26" fill="#132e65"></circle><circle r="5" cx="531.11" cy="680.58" fill="#132e65"></circle><circle r="5" cx="530.13" cy="858.72" fill="#132e65"></circle><circle r="5" cx="705.83" cy="352.37" fill="#132e65"></circle><circle r="5" cx="682.9" cy="549.31" fill="#132e65"></circle><circle r="5" cx="707.56" cy="656.74" fill="#132e65"></circle><circle r="5" cx="813.13" cy="242.48" fill="#132e65"></circle><circle r="5" cx="834.6" cy="542.95" fill="#132e65"></circle><circle r="5" cx="789.73" cy="639.03" fill="#132e65"></circle><circle r="5" cx="858.77" cy="789.01" fill="#132e65"></circle><circle r="5" cx="967.74" cy="-98.65" fill="#132e65"></circle><circle r="5" cx="1006.51" cy="107.07" fill="#132e65"></circle><circle r="5" cx="963.74" cy="233.18" fill="#132e65"></circle><circle r="5" cx="972.91" cy="405.98" fill="#132e65"></circle><circle r="5" cx="966.48" cy="538.28" fill="#132e65"></circle><circle r="5" cx="943.33" cy="644.58" fill="#132e65"></circle><circle r="5" cx="1115.57" cy="-106.4" fill="#132e65"></circle><circle r="5" cx="1094.38" cy="207.06" fill="#132e65"></circle><circle r="5" cx="1101.14" cy="522.17" fill="#132e65"></circle><circle r="5" cx="1098.51" cy="703.11" fill="#132e65"></circle><circle r="5" cx="1150.91" cy="809.28" fill="#132e65"></circle><circle r="5" cx="1260.79" cy="-102.19" fill="#132e65"></circle><circle r="5" cx="1239.54" cy="224.3" fill="#132e65"></circle><circle r="5" cx="1300.81" cy="340.97" fill="#132e65"></circle><circle r="5" cx="1251.29" cy="518.47" fill="#132e65"></circle><circle r="5" cx="1300.08" cy="823.05" fill="#132e65"></circle><circle r="5" cx="1422.41" cy="-61.8" fill="#132e65"></circle><circle r="5" cx="1413.53" cy="98.04" fill="#132e65"></circle><circle r="5" cx="1427.92" cy="215.25" fill="#132e65"></circle><circle r="5" cx="1417.7" cy="340.81" fill="#132e65"></circle><circle r="5" cx="1442.02" cy="546.84" fill="#132e65"></circle><circle r="5" cx="1433.89" cy="678.34" fill="#132e65"></circle><circle r="5" cx="1416.74" cy="843.35" fill="#132e65"></circle><circle r="5" cx="1570.78" cy="86.79" fill="#132e65"></circle><circle r="5" cx="1549.41" cy="192.59" fill="#132e65"></circle><circle r="5" cx="1538.35" cy="371.51" fill="#132e65"></circle><circle r="5" cx="1578.07" cy="505.65" fill="#132e65"></circle><circle r="5" cx="1594.56" cy="825.28" fill="#132e65"></circle><path d="M194.95 824.4L194.95 824.4" stroke="hsl(228.5, 77.2%, 51.5%)" stroke-width="1.5"></path><path d="M194.95 824.4L108.69 792.25" stroke="hsl(228.5, 77.2%, 51.5%)" stroke-width="1.5"></path><path d="M194.95 824.4L231.58 648.58" stroke="hsl(228.5, 77.2%, 51.5%)" stroke-width="1.5"></path><path d="M194.95 824.4L375.63 856.18" stroke="hsl(228.5, 77.2%, 51.5%)" stroke-width="1.5"></path><path d="M194.95 824.4L60.22 689.06" stroke="hsl(228.5, 77.2%, 51.5%)" stroke-width="1.5"></path><path d="M510.44 675.42L510.44 675.42" stroke="hsl(228.5, 77.2%, 51.5%)" stroke-width="1.5"></path><path d="M510.44 675.42L405.34 659.98" stroke="hsl(228.5, 77.2%, 51.5%)" stroke-width="1.5"></path><path d="M542.99 855.57L542.99 855.57" stroke="hsl(228.5, 77.2%, 51.5%)" stroke-width="1.5"></path><path d="M542.99 855.57L654.4 843.27" stroke="hsl(228.5, 77.2%, 51.5%)" stroke-width="1.5"></path><path d="M542.99 855.57L375.63 856.18" stroke="hsl(228.5, 77.2%, 51.5%)" stroke-width="1.5"></path><path d="M654.4 843.27L654.4 843.27" stroke="hsl(228.5, 77.2%, 51.5%)" stroke-width="1.5"></path><path d="M654.4 843.27L805.72 789.09" stroke="hsl(228.5, 77.2%, 51.5%)" stroke-width="1.5"></path><path d="M977.71 378.09L977.71 378.09" stroke="hsl(228.5, 77.2%, 51.5%)" stroke-width="1.5"></path><path d="M977.71 378.09L1005.8 501.39" stroke="hsl(228.5, 77.2%, 51.5%)" stroke-width="1.5"></path><path d="M977.71 378.09L1109.62 352.65" stroke="hsl(228.5, 77.2%, 51.5%)" stroke-width="1.5"></path><path d="M977.71 378.09L843.25 366.94" stroke="hsl(228.5, 77.2%, 51.5%)" stroke-width="1.5"></path><path d="M977.71 378.09L855 537.36" stroke="hsl(228.5, 77.2%, 51.5%)" stroke-width="1.5"></path><path d="M1005.8 501.39L1005.8 501.39" stroke="hsl(228.5, 77.2%, 51.5%)" stroke-width="1.5"></path><path d="M1005.8 501.39L1149.42 535.79" stroke="hsl(228.5, 77.2%, 51.5%)" stroke-width="1.5"></path><path d="M1005.8 501.39L855 537.36" stroke="hsl(228.5, 77.2%, 51.5%)" stroke-width="1.5"></path><path d="M1109.62 352.65L1109.62 352.65" stroke="hsl(228.5, 77.2%, 51.5%)" stroke-width="1.5"></path><path d="M1109.62 352.65L1145.32 231.61" stroke="hsl(228.5, 77.2%, 51.5%)" stroke-width="1.5"></path><path d="M1109.62 352.65L1005.8 501.39" stroke="hsl(228.5, 77.2%, 51.5%)" stroke-width="1.5"></path><path d="M1109.62 352.65L1149.42 535.79" stroke="hsl(228.5, 77.2%, 51.5%)" stroke-width="1.5"></path><path d="M1109.62 352.65L1305.33 399.03" stroke="hsl(228.5, 77.2%, 51.5%)" stroke-width="1.5"></path><path d="M1109.62 352.65L1288.07 241.4" stroke="hsl(228.5, 77.2%, 51.5%)" stroke-width="1.5"></path><path d="M1305.33 399.03L1305.33 399.03" stroke="hsl(228.5, 77.2%, 51.5%)" stroke-width="1.5"></path><path d="M1305.33 399.03L1307.39 501.92" stroke="hsl(228.5, 77.2%, 51.5%)" stroke-width="1.5"></path><path d="M1305.33 399.03L1441.72 405.22" stroke="hsl(228.5, 77.2%, 51.5%)" stroke-width="1.5"></path><path d="M1305.33 399.03L1288.07 241.4" stroke="hsl(228.5, 77.2%, 51.5%)" stroke-width="1.5"></path><path d="M1305.33 399.03L1405.61 534.98" stroke="hsl(228.5, 77.2%, 51.5%)" stroke-width="1.5"></path><path d="M1305.33 399.03L1393.78 233.19" stroke="hsl(228.5, 77.2%, 51.5%)" stroke-width="1.5"></path><path d="M1441.72 405.22L1441.72 405.22" stroke="hsl(228.5, 77.2%, 51.5%)" stroke-width="1.5"></path><path d="M1441.72 405.22L1405.61 534.98" stroke="hsl(228.5, 77.2%, 51.5%)" stroke-width="1.5"></path><path d="M1441.72 405.22L1600.08 385.28" stroke="hsl(228.5, 77.2%, 51.5%)" stroke-width="1.5"></path><path d="M1394.5 659.12L1394.5 659.12" stroke="hsl(228.5, 77.2%, 51.5%)" stroke-width="1.5"></path><path d="M1394.5 659.12L1291.64 699.34" stroke="hsl(228.5, 77.2%, 51.5%)" stroke-width="1.5"></path><path d="M1394.5 659.12L1405.61 534.98" stroke="hsl(228.5, 77.2%, 51.5%)" stroke-width="1.5"></path><path d="M1394.5 659.12L1307.39 501.92" stroke="hsl(228.5, 77.2%, 51.5%)" stroke-width="1.5"></path><path d="M-78.12 678.7L-78.12 678.7" stroke="hsl(228.5, 77.2%, 51.5%)" stroke-width="1.5"></path><path d="M-78.12 678.7L60.22 689.06" stroke="hsl(228.5, 77.2%, 51.5%)" stroke-width="1.5"></path><path d="M-78.12 678.7L108.69 792.25" stroke="hsl(228.5, 77.2%, 51.5%)" stroke-width="1.5"></path><path d="M60.22 689.06L60.22 689.06" stroke="hsl(228.5, 77.2%, 51.5%)" stroke-width="1.5"></path><path d="M60.22 689.06L108.69 792.25" stroke="hsl(228.5, 77.2%, 51.5%)" stroke-width="1.5"></path><path d="M108.69 792.25L108.69 792.25" stroke="hsl(228.5, 77.2%, 51.5%)" stroke-width="1.5"></path><path d="M108.69 792.25L231.58 648.58" stroke="hsl(228.5, 77.2%, 51.5%)" stroke-width="1.5"></path><path d="M231.58 648.58L231.58 648.58" stroke="hsl(228.5, 77.2%, 51.5%)" stroke-width="1.5"></path><path d="M231.58 648.58L405.34 659.98" stroke="hsl(228.5, 77.2%, 51.5%)" stroke-width="1.5"></path><path d="M231.58 648.58L60.22 689.06" stroke="hsl(228.5, 77.2%, 51.5%)" stroke-width="1.5"></path><path d="M231.58 648.58L375.63 856.18" stroke="hsl(228.5, 77.2%, 51.5%)" stroke-width="1.5"></path><path d="M231.58 648.58L488.94 554.8" stroke="hsl(228.5, 77.2%, 51.5%)" stroke-width="1.5"></path><path d="M405.34 659.98L405.34 659.98" stroke="hsl(228.5, 77.2%, 51.5%)" stroke-width="1.5"></path><path d="M405.34 659.98L488.94 554.8" stroke="hsl(228.5, 77.2%, 51.5%)" stroke-width="1.5"></path><path d="M405.34 659.98L375.63 856.18" stroke="hsl(228.5, 77.2%, 51.5%)" stroke-width="1.5"></path><path d="M405.34 659.98L542.99 855.57" stroke="hsl(228.5, 77.2%, 51.5%)" stroke-width="1.5"></path><path d="M375.63 856.18L375.63 856.18" stroke="hsl(228.5, 77.2%, 51.5%)" stroke-width="1.5"></path><path d="M375.63 856.18L510.44 675.42" stroke="hsl(228.5, 77.2%, 51.5%)" stroke-width="1.5"></path><path d="M488.94 554.8L488.94 554.8" stroke="hsl(228.5, 77.2%, 51.5%)" stroke-width="1.5"></path><path d="M488.94 554.8L510.44 675.42" stroke="hsl(228.5, 77.2%, 51.5%)" stroke-width="1.5"></path><path d="M693.92 494.98L693.92 494.98" stroke="hsl(228.5, 77.2%, 51.5%)" stroke-width="1.5"></path><path d="M693.92 494.98L676.84 654.51" stroke="hsl(228.5, 77.2%, 51.5%)" stroke-width="1.5"></path><path d="M693.92 494.98L855 537.36" stroke="hsl(228.5, 77.2%, 51.5%)" stroke-width="1.5"></path><path d="M676.84 654.51L676.84 654.51" stroke="hsl(228.5, 77.2%, 51.5%)" stroke-width="1.5"></path><path d="M676.84 654.51L510.44 675.42" stroke="hsl(228.5, 77.2%, 51.5%)" stroke-width="1.5"></path><path d="M676.84 654.51L805.72 789.09" stroke="hsl(228.5, 77.2%, 51.5%)" stroke-width="1.5"></path><path d="M676.84 654.51L654.4 843.27" stroke="hsl(228.5, 77.2%, 51.5%)" stroke-width="1.5"></path><path d="M676.84 654.51L488.94 554.8" stroke="hsl(228.5, 77.2%, 51.5%)" stroke-width="1.5"></path><path d="M843.25 366.94L843.25 366.94" stroke="hsl(228.5, 77.2%, 51.5%)" stroke-width="1.5"></path><path d="M843.25 366.94L855 537.36" stroke="hsl(228.5, 77.2%, 51.5%)" stroke-width="1.5"></path><path d="M843.25 366.94L693.92 494.98" stroke="hsl(228.5, 77.2%, 51.5%)" stroke-width="1.5"></path><path d="M843.25 366.94L1005.8 501.39" stroke="hsl(228.5, 77.2%, 51.5%)" stroke-width="1.5"></path><path d="M843.25 366.94L1109.62 352.65" stroke="hsl(228.5, 77.2%, 51.5%)" stroke-width="1.5"></path><path d="M855 537.36L855 537.36" stroke="hsl(228.5, 77.2%, 51.5%)" stroke-width="1.5"></path><path d="M805.72 789.09L805.72 789.09" stroke="hsl(228.5, 77.2%, 51.5%)" stroke-width="1.5"></path><path d="M805.72 789.09L985.99 857.85" stroke="hsl(228.5, 77.2%, 51.5%)" stroke-width="1.5"></path><path d="M805.72 789.09L855 537.36" stroke="hsl(228.5, 77.2%, 51.5%)" stroke-width="1.5"></path><path d="M805.72 789.09L542.99 855.57" stroke="hsl(228.5, 77.2%, 51.5%)" stroke-width="1.5"></path><path d="M985.99 857.85L985.99 857.85" stroke="hsl(228.5, 77.2%, 51.5%)" stroke-width="1.5"></path><path d="M985.99 857.85L1131.71 825.48" stroke="hsl(228.5, 77.2%, 51.5%)" stroke-width="1.5"></path><path d="M985.99 857.85L1149.96 709.14" stroke="hsl(228.5, 77.2%, 51.5%)" stroke-width="1.5"></path><path d="M985.99 857.85L1303.5 852.3" stroke="hsl(228.5, 77.2%, 51.5%)" stroke-width="1.5"></path><path d="M985.99 857.85L654.4 843.27" stroke="hsl(228.5, 77.2%, 51.5%)" stroke-width="1.5"></path><path d="M1145.32 231.61L1145.32 231.61" stroke="hsl(228.5, 77.2%, 51.5%)" stroke-width="1.5"></path><path d="M1145.32 231.61L1288.07 241.4" stroke="hsl(228.5, 77.2%, 51.5%)" stroke-width="1.5"></path><path d="M1145.32 231.61L1238.41 110.24" stroke="hsl(228.5, 77.2%, 51.5%)" stroke-width="1.5"></path><path d="M1149.42 535.79L1149.42 535.79" stroke="hsl(228.5, 77.2%, 51.5%)" stroke-width="1.5"></path><path d="M1149.42 535.79L1307.39 501.92" stroke="hsl(228.5, 77.2%, 51.5%)" stroke-width="1.5"></path><path d="M1149.96 709.14L1149.96 709.14" stroke="hsl(228.5, 77.2%, 51.5%)" stroke-width="1.5"></path><path d="M1149.96 709.14L1131.71 825.48" stroke="hsl(228.5, 77.2%, 51.5%)" stroke-width="1.5"></path><path d="M1149.96 709.14L1291.64 699.34" stroke="hsl(228.5, 77.2%, 51.5%)" stroke-width="1.5"></path><path d="M1149.96 709.14L1149.42 535.79" stroke="hsl(228.5, 77.2%, 51.5%)" stroke-width="1.5"></path><path d="M1149.96 709.14L1303.5 852.3" stroke="hsl(228.5, 77.2%, 51.5%)" stroke-width="1.5"></path><path d="M1149.96 709.14L1394.5 659.12" stroke="hsl(228.5, 77.2%, 51.5%)" stroke-width="1.5"></path><path d="M1131.71 825.48L1131.71 825.48" stroke="hsl(228.5, 77.2%, 51.5%)" stroke-width="1.5"></path><path d="M1131.71 825.48L1303.5 852.3" stroke="hsl(228.5, 77.2%, 51.5%)" stroke-width="1.5"></path><path d="M1131.71 825.48L1291.64 699.34" stroke="hsl(228.5, 77.2%, 51.5%)" stroke-width="1.5"></path><path d="M1131.71 825.48L1417.48 845.81" stroke="hsl(228.5, 77.2%, 51.5%)" stroke-width="1.5"></path><path d="M1131.71 825.48L1149.42 535.79" stroke="hsl(228.5, 77.2%, 51.5%)" stroke-width="1.5"></path><path d="M1292.36 -74.06L1292.36 -74.06" stroke="hsl(228.5, 77.2%, 51.5%)" stroke-width="1.5"></path><path d="M1292.36 -74.06L1399.54 -40.85" stroke="hsl(228.5, 77.2%, 51.5%)" stroke-width="1.5"></path><path d="M1292.36 -74.06L1238.41 110.24" stroke="hsl(228.5, 77.2%, 51.5%)" stroke-width="1.5"></path><path d="M1292.36 -74.06L1422.22 81.39" stroke="hsl(228.5, 77.2%, 51.5%)" stroke-width="1.5"></path><path d="M1292.36 -74.06L1552.4 -65.52" stroke="hsl(228.5, 77.2%, 51.5%)" stroke-width="1.5"></path><path d="M1238.41 110.24L1238.41 110.24" stroke="hsl(228.5, 77.2%, 51.5%)" stroke-width="1.5"></path><path d="M1238.41 110.24L1288.07 241.4" stroke="hsl(228.5, 77.2%, 51.5%)" stroke-width="1.5"></path><path d="M1238.41 110.24L1422.22 81.39" stroke="hsl(228.5, 77.2%, 51.5%)" stroke-width="1.5"></path><path d="M1288.07 241.4L1288.07 241.4" stroke="hsl(228.5, 77.2%, 51.5%)" stroke-width="1.5"></path><path d="M1288.07 241.4L1393.78 233.19" stroke="hsl(228.5, 77.2%, 51.5%)" stroke-width="1.5"></path><path d="M1307.39 501.92L1307.39 501.92" stroke="hsl(228.5, 77.2%, 51.5%)" stroke-width="1.5"></path><path d="M1307.39 501.92L1405.61 534.98" stroke="hsl(228.5, 77.2%, 51.5%)" stroke-width="1.5"></path><path d="M1291.64 699.34L1291.64 699.34" stroke="hsl(228.5, 77.2%, 51.5%)" stroke-width="1.5"></path><path d="M1291.64 699.34L1303.5 852.3" stroke="hsl(228.5, 77.2%, 51.5%)" stroke-width="1.5"></path><path d="M1291.64 699.34L1417.48 845.81" stroke="hsl(228.5, 77.2%, 51.5%)" stroke-width="1.5"></path><path d="M1303.5 852.3L1303.5 852.3" stroke="hsl(228.5, 77.2%, 51.5%)" stroke-width="1.5"></path><path d="M1303.5 852.3L1417.48 845.81" stroke="hsl(228.5, 77.2%, 51.5%)" stroke-width="1.5"></path><path d="M1303.5 852.3L1394.5 659.12" stroke="hsl(228.5, 77.2%, 51.5%)" stroke-width="1.5"></path><path d="M1399.54 -40.85L1399.54 -40.85" stroke="hsl(228.5, 77.2%, 51.5%)" stroke-width="1.5"></path><path d="M1399.54 -40.85L1422.22 81.39" stroke="hsl(228.5, 77.2%, 51.5%)" stroke-width="1.5"></path><path d="M1399.54 -40.85L1552.4 -65.52" stroke="hsl(228.5, 77.2%, 51.5%)" stroke-width="1.5"></path><path d="M1399.54 -40.85L1559.19 72.36" stroke="hsl(228.5, 77.2%, 51.5%)" stroke-width="1.5"></path><path d="M1399.54 -40.85L1238.41 110.24" stroke="hsl(228.5, 77.2%, 51.5%)" stroke-width="1.5"></path><path d="M1422.22 81.39L1422.22 81.39" stroke="hsl(228.5, 77.2%, 51.5%)" stroke-width="1.5"></path><path d="M1422.22 81.39L1559.19 72.36" stroke="hsl(228.5, 77.2%, 51.5%)" stroke-width="1.5"></path><path d="M1422.22 81.39L1393.78 233.19" stroke="hsl(228.5, 77.2%, 51.5%)" stroke-width="1.5"></path><path d="M1422.22 81.39L1552.4 -65.52" stroke="hsl(228.5, 77.2%, 51.5%)" stroke-width="1.5"></path><path d="M1393.78 233.19L1393.78 233.19" stroke="hsl(228.5, 77.2%, 51.5%)" stroke-width="1.5"></path><path d="M1393.78 233.19L1441.72 405.22" stroke="hsl(228.5, 77.2%, 51.5%)" stroke-width="1.5"></path><path d="M1393.78 233.19L1580.68 244.94" stroke="hsl(228.5, 77.2%, 51.5%)" stroke-width="1.5"></path><path d="M1405.61 534.98L1405.61 534.98" stroke="hsl(228.5, 77.2%, 51.5%)" stroke-width="1.5"></path><path d="M1417.48 845.81L1417.48 845.81" stroke="hsl(228.5, 77.2%, 51.5%)" stroke-width="1.5"></path><path d="M1417.48 845.81L1561.7 797.68" stroke="hsl(228.5, 77.2%, 51.5%)" stroke-width="1.5"></path><path d="M1552.4 -65.52L1552.4 -65.52" stroke="hsl(228.5, 77.2%, 51.5%)" stroke-width="1.5"></path><path d="M1552.4 -65.52L1559.19 72.36" stroke="hsl(228.5, 77.2%, 51.5%)" stroke-width="1.5"></path><path d="M1559.19 72.36L1559.19 72.36" stroke="hsl(228.5, 77.2%, 51.5%)" stroke-width="1.5"></path><path d="M1559.19 72.36L1580.68 244.94" stroke="hsl(228.5, 77.2%, 51.5%)" stroke-width="1.5"></path><path d="M1580.68 244.94L1580.68 244.94" stroke="hsl(228.5, 77.2%, 51.5%)" stroke-width="1.5"></path><path d="M1580.68 244.94L1600.08 385.28" stroke="hsl(228.5, 77.2%, 51.5%)" stroke-width="1.5"></path><path d="M1600.08 385.28L1600.08 385.28" stroke="hsl(228.5, 77.2%, 51.5%)" stroke-width="1.5"></path><path d="M1600.08 385.28L1584.68 520.21" stroke="hsl(228.5, 77.2%, 51.5%)" stroke-width="1.5"></path><path d="M1600.08 385.28L1405.61 534.98" stroke="hsl(228.5, 77.2%, 51.5%)" stroke-width="1.5"></path><path d="M1600.08 385.28L1393.78 233.19" stroke="hsl(228.5, 77.2%, 51.5%)" stroke-width="1.5"></path><path d="M1600.08 385.28L1582.23 670.2" stroke="hsl(228.5, 77.2%, 51.5%)" stroke-width="1.5"></path><path d="M1584.68 520.21L1584.68 520.21" stroke="hsl(228.5, 77.2%, 51.5%)" stroke-width="1.5"></path><path d="M1584.68 520.21L1582.23 670.2" stroke="hsl(228.5, 77.2%, 51.5%)" stroke-width="1.5"></path><path d="M1584.68 520.21L1405.61 534.98" stroke="hsl(228.5, 77.2%, 51.5%)" stroke-width="1.5"></path><path d="M1582.23 670.2L1582.23 670.2" stroke="hsl(228.5, 77.2%, 51.5%)" stroke-width="1.5"></path><path d="M1582.23 670.2L1561.7 797.68" stroke="hsl(228.5, 77.2%, 51.5%)" stroke-width="1.5"></path><path d="M1582.23 670.2L1394.5 659.12" stroke="hsl(228.5, 77.2%, 51.5%)" stroke-width="1.5"></path><path d="M1582.23 670.2L1405.61 534.98" stroke="hsl(228.5, 77.2%, 51.5%)" stroke-width="1.5"></path><path d="M1582.23 670.2L1417.48 845.81" stroke="hsl(228.5, 77.2%, 51.5%)" stroke-width="1.5"></path><path d="M1561.7 797.68L1561.7 797.68" stroke="hsl(228.5, 77.2%, 51.5%)" stroke-width="1.5"></path><circle r="25" cx="194.95" cy="824.4" fill="url(&quot;#SvgjsRadialGradient1027&quot;)"></circle><circle r="25" cx="510.44" cy="675.42" fill="url(&quot;#SvgjsRadialGradient1027&quot;)"></circle><circle r="25" cx="542.99" cy="855.57" fill="url(&quot;#SvgjsRadialGradient1027&quot;)"></circle><circle r="25" cx="654.4" cy="843.27" fill="url(&quot;#SvgjsRadialGradient1027&quot;)"></circle><circle r="25" cx="977.71" cy="378.09" fill="url(&quot;#SvgjsRadialGradient1027&quot;)"></circle><circle r="25" cx="1005.8" cy="501.39" fill="url(&quot;#SvgjsRadialGradient1027&quot;)"></circle><circle r="25" cx="1109.62" cy="352.65" fill="url(&quot;#SvgjsRadialGradient1027&quot;)"></circle><circle r="25" cx="1305.33" cy="399.03" fill="url(&quot;#SvgjsRadialGradient1027&quot;)"></circle><circle r="25" cx="1441.72" cy="405.22" fill="url(&quot;#SvgjsRadialGradient1027&quot;)"></circle><circle r="25" cx="1394.5" cy="659.12" fill="url(&quot;#SvgjsRadialGradient1027&quot;)"></circle><circle r="5" cx="-78.12" cy="678.7" fill="#8b9ad9"></circle><circle r="5" cx="60.22" cy="689.06" fill="#8b9ad9"></circle><circle r="5" cx="108.69" cy="792.25" fill="#8b9ad9"></circle><circle r="5" cx="231.58" cy="648.58" fill="#8b9ad9"></circle><circle r="5" cx="405.34" cy="659.98" fill="#8b9ad9"></circle><circle r="5" cx="375.63" cy="856.18" fill="#8b9ad9"></circle><circle r="5" cx="488.94" cy="554.8" fill="#8b9ad9"></circle><circle r="5" cx="693.92" cy="494.98" fill="#8b9ad9"></circle><circle r="5" cx="676.84" cy="654.51" fill="#8b9ad9"></circle><circle r="5" cx="843.25" cy="366.94" fill="#8b9ad9"></circle><circle r="5" cx="855" cy="537.36" fill="#8b9ad9"></circle><circle r="5" cx="805.72" cy="789.09" fill="#8b9ad9"></circle><circle r="5" cx="985.99" cy="857.85" fill="#8b9ad9"></circle><circle r="5" cx="1145.32" cy="231.61" fill="#8b9ad9"></circle><circle r="5" cx="1149.42" cy="535.79" fill="#8b9ad9"></circle><circle r="5" cx="1149.96" cy="709.14" fill="#8b9ad9"></circle><circle r="5" cx="1131.71" cy="825.48" fill="#8b9ad9"></circle><circle r="5" cx="1292.36" cy="-74.06" fill="#8b9ad9"></circle><circle r="5" cx="1238.41" cy="110.24" fill="#8b9ad9"></circle><circle r="5" cx="1288.07" cy="241.4" fill="#8b9ad9"></circle><circle r="5" cx="1307.39" cy="501.92" fill="#8b9ad9"></circle><circle r="5" cx="1291.64" cy="699.34" fill="#8b9ad9"></circle><circle r="5" cx="1303.5" cy="852.3" fill="#8b9ad9"></circle><circle r="5" cx="1399.54" cy="-40.85" fill="#8b9ad9"></circle><circle r="5" cx="1422.22" cy="81.39" fill="#8b9ad9"></circle><circle r="5" cx="1393.78" cy="233.19" fill="#8b9ad9"></circle><circle r="5" cx="1405.61" cy="534.98" fill="#8b9ad9"></circle><circle r="5" cx="1417.48" cy="845.81" fill="#8b9ad9"></circle><circle r="5" cx="1552.4" cy="-65.52" fill="#8b9ad9"></circle><circle r="5" cx="1559.19" cy="72.36" fill="#8b9ad9"></circle><circle r="5" cx="1580.68" cy="244.94" fill="#8b9ad9"></circle><circle r="5" cx="1600.08" cy="385.28" fill="#8b9ad9"></circle><circle r="5" cx="1584.68" cy="520.21" fill="#8b9ad9"></circle><circle r="5" cx="1582.23" cy="670.2" fill="#8b9ad9"></circle><circle r="5" cx="1561.7" cy="797.68" fill="#8b9ad9"></circle></g><defs><mask id="SvgjsMask1026"><rect width="1440" height="660" fill="#ffffff"></rect></mask><radialGradient id="SvgjsRadialGradient1027"><stop stop-color="#ffffff" offset="0.1"></stop><stop stop-color="#1735b3" offset="0.2"></stop><stop stop-color="rgba(23, 53, 179, 0)" offset="1"></stop></radialGradient></defs></svg>